<svg xmlns="http://www.w3.org/2000/svg" viewBox="0 0 240 60" fill="none">
  <rect x="4" y="10" width="40" height="40" rx="10" fill="#6255a4"/>
  <rect x="4" y="10" width="40" height="40" rx="10" fill="url(#g)" fillOpacity="0.3"/>
  <path d="M16 18h16a2 2 0 012 2v20a2 2 0 01-2 2H16a2 2 0 01-2-2V20a2 2 0 012-2z" fill="#fff" opacity="0.9"/>
  <path d="M20 25h8M20 30h8M20 35h8" stroke="#6255a4" strokeWidth="2" strokeLinecap="round"/>
  <circle cx="16" cy="22" r="2" fill="#52c7e4"/>
  <circle cx="32" cy="38" r="2" fill="#52c7e4"/>
  <text x="56" y="33" fontFamily="Inter, system-ui, sans-serif" fontSize="18" fontWeight="700" fill="#2a2551" letterSpacing="1">5PM</text>
  <text x="56" y="50" fontFamily="Inter, system-ui, sans-serif" fontSize="12" fontWeight="500" fill="#6255a4" letterSpacing="2.5">NEXUS INVEST</text>
  <defs>
    <linearGradient id="g" x1="0" y1="0" x2="1" y2="1">
      <stop offset="0%" stopColor="#52c7e4"/>
      <stop offset="100%" stopColor="#6255a4"/>
    </linearGradient>
  </defs>
</svg>
